<?xml version="1.0" encoding="UTF-8" standalone="no"?>
<svg
   xmlns:dc="http://purl.org/dc/elements/1.1/"
   xmlns:cc="http://creativecommons.org/ns#"
   xmlns:rdf="http://www.w3.org/1999/02/22-rdf-syntax-ns#"
   xmlns:svg="http://www.w3.org/2000/svg"
   xmlns="http://www.w3.org/2000/svg"
   version="1.1"
   id="svg4146"
   viewBox="0 0 668.00002 480.00001"
   height="480"
   width="668">
  <defs
     id="defs4148" />
  <metadata
     id="metadata4151">
    <rdf:RDF>
      <cc:Work
         rdf:about="">
        <dc:format>image/svg+xml</dc:format>
        <dc:type
           rdf:resource="http://purl.org/dc/dcmitype/StillImage" />
        <dc:title></dc:title>
      </cc:Work>
    </rdf:RDF>
  </metadata>
  <g
     style="display:none"
     transform="translate(-91.349172,-392.53048)"
     id="layer1">
    <g
       transform="translate(-98.095018,-84.559303)"
       id="g4346" />
    <g
       transform="matrix(0.70710678,-0.70710678,0.70710678,0.70710678,-340.67585,504.23879)"
       id="g4894">
      <rect
         y="630.94006"
         x="335.29562"
         height="47.477173"
         width="365.29016"
         id="rect4772-7"
         style="display:inline;opacity:1;fill:#ffffff;fill-opacity:1;stroke:none;stroke-width:3;stroke-linecap:butt;stroke-linejoin:miter;stroke-miterlimit:4;stroke-dasharray:none;stroke-opacity:1" />
      <text
         xml:space="preserve"
         style="font-style:normal;font-weight:normal;font-size:55.48899078px;line-height:125%;font-family:sans-serif;letter-spacing:0px;word-spacing:0px;fill:#000000;fill-opacity:1;stroke:none;stroke-width:1px;stroke-linecap:butt;stroke-linejoin:miter;stroke-opacity:1"
         x="517.5282"
         y="671.72864"
         id="text4713-5"><tspan
           id="tspan4715-0"
           x="517.5282"
           y="671.72864"
           style="font-style:normal;font-variant:normal;font-weight:normal;font-stretch:normal;font-size:55px;font-family:'Ubuntu Mono';-inkscape-font-specification:'Ubuntu Mono';text-align:center;text-anchor:middle">SOUND-SPACE</tspan></text>
      <rect
         y="719.27368"
         x="488.83878"
         height="47.477173"
         width="211.74698"
         id="rect4772-7-5"
         style="display:inline;opacity:1;fill:#ffffff;fill-opacity:1;stroke:none;stroke-width:3;stroke-linecap:butt;stroke-linejoin:miter;stroke-miterlimit:4;stroke-dasharray:none;stroke-opacity:1" />
      <text
         xml:space="preserve"
         style="font-style:normal;font-weight:normal;font-size:55.48899078px;line-height:125%;font-family:sans-serif;letter-spacing:0px;word-spacing:0px;fill:#000000;fill-opacity:1;stroke:none;stroke-width:1px;stroke-linecap:butt;stroke-linejoin:miter;stroke-opacity:1"
         x="595.23474"
         y="760.06226"
         id="text4713-5-9"><tspan
           id="tspan4715-0-0"
           x="595.23474"
           y="760.06226"
           style="font-style:normal;font-variant:normal;font-weight:normal;font-stretch:normal;font-size:55px;font-family:'Ubuntu Mono';-inkscape-font-specification:'Ubuntu Mono';text-align:center;text-anchor:middle">AUDIO</tspan></text>
      <rect
         y="807.60736"
         x="551.7641"
         height="47.477173"
         width="148.82167"
         id="rect4772-7-3"
         style="display:inline;opacity:1;fill:#ffffff;fill-opacity:1;stroke:none;stroke-width:3;stroke-linecap:butt;stroke-linejoin:miter;stroke-miterlimit:4;stroke-dasharray:none;stroke-opacity:1" />
      <text
         xml:space="preserve"
         style="font-style:normal;font-weight:normal;font-size:55.48899078px;line-height:125%;font-family:sans-serif;letter-spacing:0px;word-spacing:0px;fill:#000000;fill-opacity:1;stroke:none;stroke-width:1px;stroke-linecap:butt;stroke-linejoin:miter;stroke-opacity:1"
         x="625.01996"
         y="848.396"
         id="text4713-5-9-4"><tspan
           id="tspan4715-0-0-0"
           x="625.01996"
           y="848.396"
           style="font-style:normal;font-variant:normal;font-weight:normal;font-stretch:normal;font-size:55px;font-family:'Ubuntu Mono';-inkscape-font-specification:'Ubuntu Mono';text-align:center;text-anchor:middle">LAB</tspan></text>
      <rect
         y="542.60638"
         x="69.625465"
         height="47.477173"
         width="630.96033"
         id="rect4772"
         style="display:inline;opacity:1;fill:#ffffff;fill-opacity:1;stroke:none;stroke-width:3;stroke-linecap:butt;stroke-linejoin:miter;stroke-miterlimit:4;stroke-dasharray:none;stroke-opacity:1" />
      <g
         id="g4477"
         transform="translate(-21.20875,-34.737003)">
        <text
           xml:space="preserve"
           style="font-style:normal;font-weight:normal;font-size:55.48899078px;line-height:125%;font-family:sans-serif;letter-spacing:0px;word-spacing:0px;display:inline;fill:#000000;fill-opacity:1;stroke:none;stroke-width:1px;stroke-linecap:butt;stroke-linejoin:miter;stroke-opacity:1"
           x="372.64484"
           y="618.13196"
           id="text4713"><tspan
             id="tspan4715"
             x="372.64484"
             y="618.13196"
             style="font-style:normal;font-variant:normal;font-weight:normal;font-stretch:normal;font-size:55px;font-family:'Ubuntu Mono';-inkscape-font-specification:'Ubuntu Mono';text-align:center;text-anchor:middle">NATHANIEL BARTLETT</tspan></text>
        <text
           id="text4713-5-9-4-3"
           y="612.42944"
           x="665.20642"
           style="font-style:normal;font-weight:normal;font-size:43.69346237px;line-height:125%;font-family:sans-serif;letter-spacing:0px;word-spacing:0px;display:inline;fill:#000000;fill-opacity:1;stroke:none;stroke-width:1px;stroke-linecap:butt;stroke-linejoin:miter;stroke-opacity:1"
           xml:space="preserve"><tspan
             style="font-style:normal;font-variant:normal;font-weight:bold;font-stretch:normal;font-size:42.5px;font-family:'Ubuntu Mono';-inkscape-font-specification:'Ubuntu Mono Bold';text-align:center;text-anchor:middle"
             y="612.42944"
             x="665.20642"
             id="tspan4715-0-0-0-6">//</tspan></text>
      </g>
    </g>
  </g>
  <g
     id="g4174"
     transform="translate(-91.349172,-392.53048)"
     style="display:inline">
    <g
       id="g4176"
       transform="translate(-98.095018,-84.559303)" />
    <rect
       transform="matrix(0.70710678,-0.70710678,0.70710678,0.70710678,0,0)"
       y="746.5965"
       x="-262.14926"
       height="47.477173"
       width="365.29016"
       id="rect4180"
       style="display:inline;opacity:0.9;fill:#ffffff;fill-opacity:1;stroke:none;stroke-width:3;stroke-linecap:butt;stroke-linejoin:miter;stroke-miterlimit:4;stroke-dasharray:none;stroke-opacity:1" />
    <g
       id="text4182"
       style="font-style:normal;font-weight:normal;font-size:55.48899078px;line-height:125%;font-family:sans-serif;letter-spacing:0px;word-spacing:0px;fill:#000000;fill-opacity:1;stroke:none;stroke-width:1px;stroke-linecap:butt;stroke-linejoin:miter;stroke-opacity:1"
       transform="matrix(0.70710678,-0.70710678,0.70710678,0.70710678,0,0)">
      <path
         id="path4270"
         style="font-style:normal;font-variant:normal;font-weight:normal;font-stretch:normal;font-size:55px;font-family:'Ubuntu Mono';-inkscape-font-specification:'Ubuntu Mono';text-align:center;text-anchor:middle"
         d="m -218.29667,784.19507 q 3.465,0 5.28,-1.32 1.815,-1.32 1.815,-3.96 0,-1.595 -0.66,-2.695 -0.66,-1.155 -1.76,-1.98 -1.1,-0.88 -2.475,-1.485 -1.375,-0.66 -2.805,-1.21 -1.65,-0.66 -3.19,-1.485 -1.485,-0.825 -2.695,-1.925 -1.155,-1.1 -1.87,-2.585 -0.66,-1.485 -0.66,-3.52 0,-4.455 2.805,-6.93 2.805,-2.53 7.81,-2.53 1.375,0 2.695,0.22 1.375,0.165 2.53,0.44 1.155,0.275 2.035,0.66 0.935,0.385 1.485,0.77 l -1.43,3.795 q -1.1,-0.66 -3.025,-1.32 -1.925,-0.66 -4.29,-0.66 -2.475,0 -4.29,1.265 -1.815,1.21 -1.815,3.685 0,1.43 0.495,2.42 0.55,0.99 1.43,1.76 0.935,0.715 2.145,1.32 1.21,0.605 2.64,1.21 2.09,0.88 3.795,1.76 1.76,0.88 2.97,2.09 1.265,1.21 1.925,2.86 0.715,1.65 0.715,4.015 0,4.455 -3.025,6.875 -2.97,2.365 -8.58,2.365 -1.815,0 -3.41,-0.275 -1.595,-0.22 -2.86,-0.605 -1.21,-0.385 -2.145,-0.77 -0.935,-0.385 -1.43,-0.715 l 1.375,-3.74 q 1.1,0.605 3.245,1.43 2.145,0.77 5.225,0.77 z" />
      <path
         id="path4272"
         style="font-style:normal;font-variant:normal;font-weight:normal;font-stretch:normal;font-size:55px;font-family:'Ubuntu Mono';-inkscape-font-specification:'Ubuntu Mono';text-align:center;text-anchor:middle"
         d="m -202.07167,770.33507 q 0,-4.565 0.88,-7.92 0.88,-3.355 2.475,-5.5 1.595,-2.2 3.795,-3.245 2.255,-1.1 5.005,-1.1 2.695,0 4.95,1.1 2.255,1.045 3.85,3.245 1.595,2.145 2.475,5.5 0.935,3.355 0.935,7.92 0,4.565 -0.935,7.92 -0.88,3.355 -2.475,5.555 -1.595,2.2 -3.85,3.245 -2.255,1.045 -4.95,1.045 -2.75,0 -5.005,-1.045 -2.2,-1.045 -3.795,-3.245 -1.595,-2.2 -2.475,-5.555 -0.88,-3.355 -0.88,-7.92 z m 4.62,0 q 0,6.71 1.815,10.285 1.815,3.575 5.61,3.575 3.85,0 5.775,-3.575 1.925,-3.575 1.925,-10.285 0,-6.71 -1.925,-10.285 -1.925,-3.575 -5.775,-3.575 -3.795,0 -5.61,3.575 -1.815,3.575 -1.815,10.285 z" />
      <path
         id="path4274"
         style="font-style:normal;font-variant:normal;font-weight:normal;font-stretch:normal;font-size:55px;font-family:'Ubuntu Mono';-inkscape-font-specification:'Ubuntu Mono';text-align:center;text-anchor:middle"
         d="m -162.41667,788.10007 q -3.025,0 -5.17,-0.88 -2.09,-0.88 -3.41,-2.475 -1.32,-1.595 -1.925,-3.905 -0.605,-2.31 -0.605,-5.17 l 0,-22.33 4.51,0 0,21.835 q 0,2.585 0.44,4.345 0.495,1.705 1.32,2.75 0.88,1.045 2.09,1.485 1.21,0.44 2.75,0.44 1.54,0 2.75,-0.44 1.21,-0.44 2.035,-1.485 0.88,-1.045 1.32,-2.75 0.495,-1.76 0.495,-4.345 l 0,-21.835 4.51,0 0,22.33 q 0,2.86 -0.605,5.17 -0.605,2.31 -1.925,3.905 -1.32,1.595 -3.465,2.475 -2.09,0.88 -5.115,0.88 z" />
      <path
         id="path4276"
         style="font-style:normal;font-variant:normal;font-weight:normal;font-stretch:normal;font-size:55px;font-family:'Ubuntu Mono';-inkscape-font-specification:'Ubuntu Mono';text-align:center;text-anchor:middle"
         d="m -128.81167,787.38507 q -1.87,-4.565 -3.52,-8.25 -1.65,-3.74 -3.19,-6.985 -1.485,-3.245 -2.97,-6.105 -1.485,-2.915 -3.025,-5.83 l 0,27.17 -4.125,0 0,-34.045 4.62,0 q 2.255,4.125 3.905,7.205 1.705,3.08 3.08,5.995 1.43,2.86 2.75,5.94 1.32,3.025 2.97,7.04 l 0,-26.18 4.125,0 0,34.045 -4.62,0 z" />
      <path
         id="path4278"
         style="font-style:normal;font-variant:normal;font-weight:normal;font-stretch:normal;font-size:55px;font-family:'Ubuntu Mono';-inkscape-font-specification:'Ubuntu Mono';text-align:center;text-anchor:middle"
         d="m -95.866672,770.33507 q 0,4.73 -1.21,8.03 -1.155,3.3 -3.244998,5.39 -2.035,2.035 -4.895,2.97 -2.805,0.935 -6.105,0.935 -3.41,0 -6.875,-0.825 l 0,-33 q 3.465,-0.825 6.875,-0.825 3.3,0 6.105,0.935 2.86,0.935 4.895,3.025 2.089998,2.09 3.244998,5.39 1.21,3.3 1.21,7.975 z m -17.819998,13.255 q 1.375,0.165 2.805,0.165 2.475,0 4.4,-0.715 1.925,-0.77 3.245,-2.365 1.32,-1.65 2.035,-4.18 0.715,-2.585 0.715,-6.16 0,-6.93 -2.695,-10.175 -2.64,-3.245 -7.865,-3.245 -0.715,0 -1.43,0.055 -0.66,0 -1.21,0.11 l 0,26.51 z" />
      <path
         id="path4280"
         style="font-style:normal;font-variant:normal;font-weight:normal;font-stretch:normal;font-size:55px;font-family:'Ubuntu Mono';-inkscape-font-specification:'Ubuntu Mono';text-align:center;text-anchor:middle"
         d="m -85.966672,771.27007 12.1,0 0,4.29 -12.1,0 0,-4.29 z" />
      <path
         id="path4282"
         style="font-style:normal;font-variant:normal;font-weight:normal;font-stretch:normal;font-size:55px;font-family:'Ubuntu Mono';-inkscape-font-specification:'Ubuntu Mono';text-align:center;text-anchor:middle"
         d="m -53.296672,784.19507 q 3.465,0 5.28,-1.32 1.815,-1.32 1.815,-3.96 0,-1.595 -0.66,-2.695 -0.66,-1.155 -1.76,-1.98 -1.1,-0.88 -2.475,-1.485 -1.375,-0.66 -2.805,-1.21 -1.65,-0.66 -3.19,-1.485 -1.485,-0.825 -2.695,-1.925 -1.155,-1.1 -1.87,-2.585 -0.66,-1.485 -0.66,-3.52 0,-4.455 2.805,-6.93 2.805,-2.53 7.81,-2.53 1.375,0 2.695,0.22 1.375,0.165 2.53,0.44 1.155,0.275 2.035,0.66 0.935,0.385 1.485,0.77 l -1.43,3.795 q -1.1,-0.66 -3.025,-1.32 -1.925,-0.66 -4.29,-0.66 -2.475,0 -4.29,1.265 -1.815,1.21 -1.815,3.685 0,1.43 0.495,2.42 0.55,0.99 1.43,1.76 0.935,0.715 2.145,1.32 1.21,0.605 2.64,1.21 2.09,0.88 3.795,1.76 1.76,0.88 2.97,2.09 1.265,1.21 1.925,2.86 0.715,1.65 0.715,4.015 0,4.455 -3.025,6.875 -2.97,2.365 -8.58,2.365 -1.815,0 -3.41,-0.275 -1.595,-0.22 -2.86,-0.605 -1.21,-0.385 -2.145,-0.77 -0.935,-0.385 -1.43,-0.715 l 1.375,-3.74 q 1.1,0.605 3.245,1.43 2.145,0.77 5.225,0.77 z" />
      <path
         id="path4284"
         style="font-style:normal;font-variant:normal;font-weight:normal;font-stretch:normal;font-size:55px;font-family:'Ubuntu Mono';-inkscape-font-specification:'Ubuntu Mono';text-align:center;text-anchor:middle"
         d="m -25.741672,753.01007 q 3.025,0 5.28,0.77 2.31,0.77 3.795,2.2 1.54,1.375 2.255,3.3 0.77,1.925 0.77,4.29 0,5.335 -3.135,8.25 -3.135,2.86 -9.405,2.86 l -3.96,0 0,12.705 -4.51,0 0,-33.55 q 0.99,-0.22 2.145,-0.385 1.21,-0.165 2.365,-0.275 1.21,-0.11 2.31,-0.11 1.155,-0.055 2.09,-0.055 z m 0.33,3.905 q -1.43,0 -2.75,0.055 -1.32,0 -1.98,0.11 l 0,13.75 3.74,0 q 4.125,0 6.105,-1.65 2.035,-1.65 2.035,-5.445 0,-6.82 -7.15,-6.82 z" />
      <path
         id="path4286"
         style="font-style:normal;font-variant:normal;font-weight:normal;font-stretch:normal;font-size:55px;font-family:'Ubuntu Mono';-inkscape-font-specification:'Ubuntu Mono';text-align:center;text-anchor:middle"
         d="m 11.053328,787.38507 -2.0349998,-8.91 -13.09,0 -1.98,8.91 -4.6200002,0 q 0.9350002,-3.63 2.0900002,-7.865 1.155,-4.235 2.475,-8.69 1.375,-4.455 2.86,-8.91 1.485,-4.51 3.13500005,-8.58 l 5.60999995,0 q 1.595,4.07 3.025,8.58 1.4849998,4.455 2.7499998,8.91 1.32,4.455 2.475,8.69 1.155,4.235 2.09,7.865 l -4.785,0 z m -8.5249998,-30.085 q -1.265,3.465 -2.74999995,8.03 -1.48500005,4.565 -2.80500005,9.405 l 11,0 q -1.265,-4.95 -2.75,-9.515 -1.43,-4.62 -2.695,-7.92 z" />
      <path
         id="path4288"
         style="font-style:normal;font-variant:normal;font-weight:normal;font-stretch:normal;font-size:55px;font-family:'Ubuntu Mono';-inkscape-font-specification:'Ubuntu Mono';text-align:center;text-anchor:middle"
         d="m 41.633328,785.95507 q -1.925,1.1 -4.125,1.595 -2.145,0.55 -4.62,0.55 -3.025,0 -5.61,-1.045 -2.53,-1.1 -4.4,-3.245 -1.87,-2.2 -2.97,-5.555 -1.045,-3.355 -1.045,-7.92 0,-4.345 1.1,-7.645 1.155,-3.3 3.08,-5.555 1.925,-2.255 4.51,-3.41 2.585,-1.155 5.5,-1.155 2.035,0 4.125,0.55 2.145,0.55 4.18,1.815 l -1.32,3.74 q -3.63,-2.09 -6.82,-2.09 -2.255,0 -4.07,0.99 -1.76,0.935 -3.025,2.75 -1.265,1.815 -1.98,4.345 -0.66,2.53 -0.66,5.665 0,3.52 0.715,6.105 0.77,2.585 2.09,4.29 1.32,1.705 3.135,2.53 1.87,0.825 4.015,0.825 1.595,0 3.355,-0.385 1.76,-0.44 3.63,-1.485 l 1.21,3.74 z" />
      <path
         id="path4290"
         style="font-style:normal;font-variant:normal;font-weight:normal;font-stretch:normal;font-size:55px;font-family:'Ubuntu Mono';-inkscape-font-specification:'Ubuntu Mono';text-align:center;text-anchor:middle"
         d="m 48.838328,787.38507 0,-34.045 19.085,0 0,3.85 -14.575,0 0,10.45 12.76,0 0,3.85 -12.76,0 0,12.045 15.785,0 0,3.85 -20.295,0 z" />
    </g>
    <rect
       transform="matrix(0.70710678,-0.70710678,0.70710678,0.70710678,0,0)"
       y="834.93011"
       x="-108.60609"
       height="47.477173"
       width="211.74698"
       id="rect4186"
       style="display:inline;opacity:0.9;fill:#ffffff;fill-opacity:1;stroke:none;stroke-width:3;stroke-linecap:butt;stroke-linejoin:miter;stroke-miterlimit:4;stroke-dasharray:none;stroke-opacity:1" />
    <g
       id="text4188"
       style="font-style:normal;font-weight:normal;font-size:55.48899078px;line-height:125%;font-family:sans-serif;letter-spacing:0px;word-spacing:0px;fill:#000000;fill-opacity:1;stroke:none;stroke-width:1px;stroke-linecap:butt;stroke-linejoin:miter;stroke-opacity:1"
       transform="matrix(0.70710678,-0.70710678,0.70710678,0.70710678,0,0)">
      <path
         id="path4293"
         style="font-style:normal;font-variant:normal;font-weight:normal;font-stretch:normal;font-size:55px;font-family:'Ubuntu Mono';-inkscape-font-specification:'Ubuntu Mono';text-align:center;text-anchor:middle"
         d="m -48.740131,875.71869 -2.035,-8.91 -13.09,0 -1.98,8.91 -4.62,0 q 0.935,-3.63 2.09,-7.865 1.155,-4.235 2.475,-8.69 1.375,-4.455 2.86,-8.91 1.485,-4.51 3.135,-8.58 l 5.61,0 q 1.595,4.07 3.025,8.58 1.485,4.455 2.75,8.91 1.32,4.455 2.475,8.69 1.155,4.235 2.09,7.865 l -4.785,0 z m -8.525,-30.085 q -1.265,3.465 -2.75,8.03 -1.485,4.565 -2.805,9.405 l 11,0 q -1.265,-4.95 -2.75,-9.515 -1.43,-4.62 -2.695,-7.92 z" />
      <path
         id="path4295"
         style="font-style:normal;font-variant:normal;font-weight:normal;font-stretch:normal;font-size:55px;font-family:'Ubuntu Mono';-inkscape-font-specification:'Ubuntu Mono';text-align:center;text-anchor:middle"
         d="m -29.710131,876.43369 q -3.025,0 -5.17,-0.88 -2.09,-0.88 -3.41,-2.475 -1.32,-1.595 -1.925,-3.905 -0.605,-2.31 -0.605,-5.17 l 0,-22.33 4.51,0 0,21.835 q 0,2.585 0.44,4.345 0.495,1.705 1.32,2.75 0.88,1.045 2.09,1.485 1.21,0.44 2.75,0.44 1.54,0 2.75,-0.44 1.21,-0.44 2.035,-1.485 0.88,-1.045 1.32,-2.75 0.495,-1.76 0.495,-4.345 l 0,-21.835 4.51,0 0,22.33 q 0,2.86 -0.605,5.17 -0.605,2.31 -1.925,3.905 -1.32,1.595 -3.465,2.475 -2.09,0.88 -5.115,0.88 z" />
      <path
         id="path4297"
         style="font-style:normal;font-variant:normal;font-weight:normal;font-stretch:normal;font-size:55px;font-family:'Ubuntu Mono';-inkscape-font-specification:'Ubuntu Mono';text-align:center;text-anchor:middle"
         d="m 9.3398688,858.66869 q 0,4.73 -1.21,8.03 -1.155,3.3 -3.245,5.39 -2.035,2.035 -4.89499997,2.97 -2.80500003,0.935 -6.10500003,0.935 -3.41,0 -6.8749998,-0.825 l 0,-33 q 3.4649998,-0.825 6.8749998,-0.825 3.3,0 6.10500003,0.935 2.85999997,0.935 4.89499997,3.025 2.09,2.09 3.245,5.39 1.21,3.3 1.21,7.975 z m -17.82,13.255 q 1.375,0.165 2.805,0.165 2.475,0 4.4,-0.715 1.92500003,-0.77 3.245,-2.365 1.32,-1.65 2.035,-4.18 0.715,-2.585 0.715,-6.16 0,-6.93 -2.695,-10.175 -2.63999997,-3.245 -7.865,-3.245 -0.715,0 -1.43,0.055 -0.66,0 -1.21,0.11 l 0,26.51 z" />
      <path
         id="path4299"
         style="font-style:normal;font-variant:normal;font-weight:normal;font-stretch:normal;font-size:55px;font-family:'Ubuntu Mono';-inkscape-font-specification:'Ubuntu Mono';text-align:center;text-anchor:middle"
         d="m 27.544869,845.52369 0,26.345 6.6,0 0,3.85 -17.71,0 0,-3.85 6.6,0 0,-26.345 -6.6,0 0,-3.85 17.71,0 0,3.85 -6.6,0 z" />
      <path
         id="path4301"
         style="font-style:normal;font-variant:normal;font-weight:normal;font-stretch:normal;font-size:55px;font-family:'Ubuntu Mono';-inkscape-font-specification:'Ubuntu Mono';text-align:center;text-anchor:middle"
         d="m 40.634869,858.66869 q 0,-4.565 0.88,-7.92 0.88,-3.355 2.475,-5.5 1.595,-2.2 3.795,-3.245 2.255,-1.1 5.005,-1.1 2.695,0 4.95,1.1 2.255,1.045 3.85,3.245 1.595,2.145 2.475,5.5 0.935,3.355 0.935,7.92 0,4.565 -0.935,7.92 -0.88,3.355 -2.475,5.555 -1.595,2.2 -3.85,3.245 -2.255,1.045 -4.95,1.045 -2.75,0 -5.005,-1.045 -2.2,-1.045 -3.795,-3.245 -1.595,-2.2 -2.475,-5.555 -0.88,-3.355 -0.88,-7.92 z m 4.62,0 q 0,6.71 1.815,10.285 1.815,3.575 5.61,3.575 3.85,0 5.775,-3.575 1.925,-3.575 1.925,-10.285 0,-6.71 -1.925,-10.285 -1.925,-3.575 -5.775,-3.575 -3.795,0 -5.61,3.575 -1.815,3.575 -1.815,10.285 z" />
    </g>
    <rect
       transform="matrix(0.70710678,-0.70710678,0.70710678,0.70710678,0,0)"
       y="923.26379"
       x="-45.680775"
       height="47.477173"
       width="148.82167"
       id="rect4192"
       style="display:inline;opacity:0.9;fill:#ffffff;fill-opacity:1;stroke:none;stroke-width:3;stroke-linecap:butt;stroke-linejoin:miter;stroke-miterlimit:4;stroke-dasharray:none;stroke-opacity:1" />
    <g
       id="text4194"
       style="font-style:normal;font-weight:normal;font-size:55.48899078px;line-height:125%;font-family:sans-serif;letter-spacing:0px;word-spacing:0px;fill:#000000;fill-opacity:1;stroke:none;stroke-width:1px;stroke-linecap:butt;stroke-linejoin:miter;stroke-opacity:1"
       transform="matrix(0.70710678,-0.70710678,0.70710678,0.70710678,0,0)">
      <path
         id="path4304"
         style="font-style:normal;font-variant:normal;font-weight:normal;font-stretch:normal;font-size:55px;font-family:'Ubuntu Mono';-inkscape-font-specification:'Ubuntu Mono';text-align:center;text-anchor:middle"
         d="m 11.625087,960.20243 0,3.85 -20.2950004,0 0,-34.045 4.51,0 0,30.195 15.7850004,0 z" />
      <path
         id="path4306"
         style="font-style:normal;font-variant:normal;font-weight:normal;font-stretch:normal;font-size:55px;font-family:'Ubuntu Mono';-inkscape-font-specification:'Ubuntu Mono';text-align:center;text-anchor:middle"
         d="m 36.045087,964.05243 -2.035,-8.91 -13.09,0 -1.98,8.91 -4.62,0 q 0.935,-3.63 2.09,-7.865 1.155,-4.235 2.475,-8.69 1.375,-4.455 2.86,-8.91 1.485,-4.51 3.135,-8.58 l 5.61,0 q 1.595,4.07 3.025,8.58 1.485,4.455 2.75,8.91 1.32,4.455 2.475,8.69 1.155,4.235 2.09,7.865 l -4.785,0 z m -8.525,-30.085 q -1.265,3.465 -2.75,8.03 -1.485,4.565 -2.805,9.405 l 11,0 q -1.265,-4.95 -2.75,-9.515 -1.43,-4.62 -2.695,-7.92 z" />
      <path
         id="path4308"
         style="font-style:normal;font-variant:normal;font-weight:normal;font-stretch:normal;font-size:55px;font-family:'Ubuntu Mono';-inkscape-font-specification:'Ubuntu Mono';text-align:center;text-anchor:middle"
         d="m 52.545087,964.32743 q -0.825,0 -1.925,-0.055 -1.1,-0.055 -2.2,-0.165 -1.1,-0.055 -2.2,-0.22 -1.1,-0.165 -1.925,-0.385 l 0,-33 q 0.825,-0.22 1.87,-0.385 1.1,-0.165 2.2,-0.22 1.155,-0.11 2.2,-0.165 1.1,-0.055 1.98,-0.055 2.53,0 4.73,0.44 2.2,0.44 3.795,1.485 1.65,1.045 2.53,2.75 0.935,1.705 0.935,4.235 0,1.21 -0.385,2.365 -0.385,1.1 -1.1,2.09 -0.66,0.99 -1.595,1.76 -0.88,0.715 -1.925,1.1 2.805,0.77 4.675,2.86 1.925,2.035 1.925,5.335 0,5.06 -3.245,7.645 -3.245,2.585 -10.34,2.585 z m -3.74,-16.17 0,12.155 q 0.11,0.055 1.21,0.165 1.155,0.055 2.86,0.055 1.705,0 3.245,-0.275 1.595,-0.275 2.805,-0.99 1.21,-0.77 1.925,-1.98 0.77,-1.21 0.77,-3.135 0,-1.705 -0.715,-2.86 -0.66,-1.155 -1.815,-1.815 -1.1,-0.715 -2.585,-0.99 -1.485,-0.33 -3.08,-0.33 l -4.62,0 z m 0,-3.74 3.575,0 q 1.375,0 2.75,-0.275 1.375,-0.275 2.475,-0.88 1.1,-0.605 1.76,-1.65 0.66,-1.045 0.66,-2.64 0,-1.485 -0.605,-2.53 -0.605,-1.045 -1.595,-1.705 -0.99,-0.66 -2.31,-0.935 -1.265,-0.275 -2.695,-0.275 -1.43,0 -2.53,0.055 -1.045,0 -1.485,0.11 l 0,10.725 z" />
    </g>
    <rect
       transform="matrix(0.70710678,-0.70710678,0.70710678,0.70710678,0,0)"
       y="658.26282"
       x="-527.8194"
       height="47.477173"
       width="630.96033"
       id="rect4198"
       style="display:inline;opacity:0.9;fill:#ffffff;fill-opacity:1;stroke:none;stroke-width:3;stroke-linecap:butt;stroke-linejoin:miter;stroke-miterlimit:4;stroke-dasharray:none;stroke-opacity:1" />
    <g
       id="text4202"
       style="font-style:normal;font-weight:normal;font-size:55.48899078px;line-height:125%;font-family:sans-serif;letter-spacing:0px;word-spacing:0px;display:inline;fill:#000000;fill-opacity:1;stroke:none;stroke-width:1px;stroke-linecap:butt;stroke-linejoin:miter;stroke-opacity:1"
       transform="matrix(0.70710678,-0.70710678,0.70710678,0.70710678,0,0)">
      <path
         id="path4230"
         style="font-style:normal;font-variant:normal;font-weight:normal;font-stretch:normal;font-size:55px;font-family:'Ubuntu Mono';-inkscape-font-specification:'Ubuntu Mono';text-align:center;text-anchor:middle"
         d="m -473.65379,699.05139 q -1.87,-4.565 -3.52,-8.25 -1.65,-3.74 -3.19,-6.985 -1.485,-3.245 -2.97,-6.105 -1.485,-2.915 -3.025,-5.83 l 0,27.17 -4.125,0 0,-34.045 4.62,0 q 2.255,4.125 3.905,7.205 1.705,3.08 3.08,5.995 1.43,2.86 2.75,5.94 1.32,3.025 2.97,7.04 l 0,-26.18 4.125,0 0,34.045 -4.62,0 z" />
      <path
         id="path4232"
         style="font-style:normal;font-variant:normal;font-weight:normal;font-stretch:normal;font-size:55px;font-family:'Ubuntu Mono';-inkscape-font-specification:'Ubuntu Mono';text-align:center;text-anchor:middle"
         d="m -443.78879,699.05139 -2.035,-8.91 -13.09,0 -1.98,8.91 -4.62,0 q 0.935,-3.63 2.09,-7.865 1.155,-4.235 2.475,-8.69 1.375,-4.455 2.86,-8.91 1.485,-4.51 3.135,-8.58 l 5.61,0 q 1.595,4.07 3.025,8.58 1.485,4.455 2.75,8.91 1.32,4.455 2.475,8.69 1.155,4.235 2.09,7.865 l -4.785,0 z m -8.525,-30.085 q -1.265,3.465 -2.75,8.03 -1.485,4.565 -2.805,9.405 l 11,0 q -1.265,-4.95 -2.75,-9.515 -1.43,-4.62 -2.695,-7.92 z" />
      <path
         id="path4234"
         style="font-style:normal;font-variant:normal;font-weight:normal;font-stretch:normal;font-size:55px;font-family:'Ubuntu Mono';-inkscape-font-specification:'Ubuntu Mono';text-align:center;text-anchor:middle"
         d="m -413.15379,665.00639 0,3.85 -9.35,0 0,30.195 -4.51,0 0,-30.195 -9.35,0 0,-3.85 23.21,0 z" />
      <path
         id="path4236"
         style="font-style:normal;font-variant:normal;font-weight:normal;font-stretch:normal;font-size:55px;font-family:'Ubuntu Mono';-inkscape-font-specification:'Ubuntu Mono';text-align:center;text-anchor:middle"
         d="m -390.49379,665.00639 4.51,0 0,34.045 -4.51,0 0,-15.84 -13.53,0 0,15.84 -4.51,0 0,-34.045 4.51,0 0,14.355 13.53,0 0,-14.355 z" />
      <path
         id="path4238"
         style="font-style:normal;font-variant:normal;font-weight:normal;font-stretch:normal;font-size:55px;font-family:'Ubuntu Mono';-inkscape-font-specification:'Ubuntu Mono';text-align:center;text-anchor:middle"
         d="m -361.28879,699.05139 -2.035,-8.91 -13.09,0 -1.98,8.91 -4.62,0 q 0.935,-3.63 2.09,-7.865 1.155,-4.235 2.475,-8.69 1.375,-4.455 2.86,-8.91 1.485,-4.51 3.135,-8.58 l 5.61,0 q 1.595,4.07 3.025,8.58 1.485,4.455 2.75,8.91 1.32,4.455 2.475,8.69 1.155,4.235 2.09,7.865 l -4.785,0 z m -8.525,-30.085 q -1.265,3.465 -2.75,8.03 -1.485,4.565 -2.805,9.405 l 11,0 q -1.265,-4.95 -2.75,-9.515 -1.43,-4.62 -2.695,-7.92 z" />
      <path
         id="path4240"
         style="font-style:normal;font-variant:normal;font-weight:normal;font-stretch:normal;font-size:55px;font-family:'Ubuntu Mono';-inkscape-font-specification:'Ubuntu Mono';text-align:center;text-anchor:middle"
         d="m -336.15379,699.05139 q -1.87,-4.565 -3.52,-8.25 -1.65,-3.74 -3.19,-6.985 -1.485,-3.245 -2.97,-6.105 -1.485,-2.915 -3.025,-5.83 l 0,27.17 -4.125,0 0,-34.045 4.62,0 q 2.255,4.125 3.905,7.205 1.705,3.08 3.08,5.995 1.43,2.86 2.75,5.94 1.32,3.025 2.97,7.04 l 0,-26.18 4.125,0 0,34.045 -4.62,0 z" />
      <path
         id="path4242"
         style="font-style:normal;font-variant:normal;font-weight:normal;font-stretch:normal;font-size:55px;font-family:'Ubuntu Mono';-inkscape-font-specification:'Ubuntu Mono';text-align:center;text-anchor:middle"
         d="m -312.50379,668.85639 0,26.345 6.6,0 0,3.85 -17.71,0 0,-3.85 6.6,0 0,-26.345 -6.6,0 0,-3.85 17.71,0 0,3.85 -6.6,0 z" />
      <path
         id="path4244"
         style="font-style:normal;font-variant:normal;font-weight:normal;font-stretch:normal;font-size:55px;font-family:'Ubuntu Mono';-inkscape-font-specification:'Ubuntu Mono';text-align:center;text-anchor:middle"
         d="m -296.00379,699.05139 0,-34.045 19.085,0 0,3.85 -14.575,0 0,10.45 12.76,0 0,3.85 -12.76,0 0,12.045 15.785,0 0,3.85 -20.295,0 z" />
      <path
         id="path4246"
         style="font-style:normal;font-variant:normal;font-weight:normal;font-stretch:normal;font-size:55px;font-family:'Ubuntu Mono';-inkscape-font-specification:'Ubuntu Mono';text-align:center;text-anchor:middle"
         d="m -248.20879,695.20139 0,3.85 -20.295,0 0,-34.045 4.51,0 0,30.195 15.785,0 z" />
      <path
         id="path4248"
         style="font-style:normal;font-variant:normal;font-weight:normal;font-stretch:normal;font-size:55px;font-family:'Ubuntu Mono';-inkscape-font-specification:'Ubuntu Mono';text-align:center;text-anchor:middle"
         d="m -207.28879,699.32639 q -0.825,0 -1.925,-0.055 -1.1,-0.055 -2.2,-0.165 -1.1,-0.055 -2.2,-0.22 -1.1,-0.165 -1.925,-0.385 l 0,-33 q 0.825,-0.22 1.87,-0.385 1.1,-0.165 2.2,-0.22 1.155,-0.11 2.2,-0.165 1.1,-0.055 1.98,-0.055 2.53,0 4.73,0.44 2.2,0.44 3.795,1.485 1.65,1.045 2.53,2.75 0.935,1.705 0.935,4.235 0,1.21 -0.385,2.365 -0.385,1.1 -1.1,2.09 -0.66,0.99 -1.595,1.76 -0.88,0.715 -1.925,1.1 2.805,0.77 4.675,2.86 1.925,2.035 1.925,5.335 0,5.06 -3.245,7.645 -3.245,2.585 -10.34,2.585 z m -3.74,-16.17 0,12.155 q 0.11,0.055 1.21,0.165 1.155,0.055 2.86,0.055 1.705,0 3.245,-0.275 1.595,-0.275 2.805,-0.99 1.21,-0.77 1.925,-1.98 0.77,-1.21 0.77,-3.135 0,-1.705 -0.715,-2.86 -0.66,-1.155 -1.815,-1.815 -1.1,-0.715 -2.585,-0.99 -1.485,-0.33 -3.08,-0.33 l -4.62,0 z m 0,-3.74 3.575,0 q 1.375,0 2.75,-0.275 1.375,-0.275 2.475,-0.88 1.1,-0.605 1.76,-1.65 0.66,-1.045 0.66,-2.64 0,-1.485 -0.605,-2.53 -0.605,-1.045 -1.595,-1.705 -0.99,-0.66 -2.31,-0.935 -1.265,-0.275 -2.695,-0.275 -1.43,0 -2.53,0.055 -1.045,0 -1.485,0.11 l 0,10.725 z" />
      <path
         id="path4250"
         style="font-style:normal;font-variant:normal;font-weight:normal;font-stretch:normal;font-size:55px;font-family:'Ubuntu Mono';-inkscape-font-specification:'Ubuntu Mono';text-align:center;text-anchor:middle"
         d="m -168.78879,699.05139 -2.035,-8.91 -13.09,0 -1.98,8.91 -4.62,0 q 0.935,-3.63 2.09,-7.865 1.155,-4.235 2.475,-8.69 1.375,-4.455 2.86,-8.91 1.485,-4.51 3.135,-8.58 l 5.61,0 q 1.595,4.07 3.025,8.58 1.485,4.455 2.75,8.91 1.32,4.455 2.475,8.69 1.155,4.235 2.09,7.865 l -4.785,0 z m -8.525,-30.085 q -1.265,3.465 -2.75,8.03 -1.485,4.565 -2.805,9.405 l 11,0 q -1.265,-4.95 -2.75,-9.515 -1.43,-4.62 -2.695,-7.92 z" />
      <path
         id="path4252"
         style="font-style:normal;font-variant:normal;font-weight:normal;font-stretch:normal;font-size:55px;font-family:'Ubuntu Mono';-inkscape-font-specification:'Ubuntu Mono';text-align:center;text-anchor:middle"
         d="m -139.80379,675.40139 q 0,3.135 -1.65,5.555 -1.65,2.365 -4.455,3.685 0.825,1.32 1.815,3.025 1.045,1.65 2.09,3.575 1.045,1.87 2.035,3.905 1.045,1.98 1.925,3.905 l -4.84,0 q -1.65,-3.96 -3.63,-7.59 -1.925,-3.63 -3.74,-5.885 -0.33,0.055 -0.99,0.055 -0.605,0 -0.825,0 l -3.85,0 0,13.42 -4.565,0 0,-33.55 q 0.825,-0.22 1.87,-0.385 1.1,-0.165 2.2,-0.22 1.155,-0.11 2.255,-0.165 1.1,-0.055 1.98,-0.055 6.16,0 9.24,2.695 3.135,2.695 3.135,8.03 z m -11.99,-6.82 q -1.265,0 -2.475,0.055 -1.155,0 -1.65,0.11 l 0,13.145 2.915,0 q 1.98,0 3.52,-0.275 1.595,-0.275 2.695,-0.99 1.155,-0.77 1.76,-2.035 0.605,-1.32 0.605,-3.41 0,-1.98 -0.605,-3.245 -0.605,-1.265 -1.595,-1.98 -0.99,-0.77 -2.365,-1.045 -1.32,-0.33 -2.805,-0.33 z" />
      <path
         id="path4254"
         style="font-style:normal;font-variant:normal;font-weight:normal;font-stretch:normal;font-size:55px;font-family:'Ubuntu Mono';-inkscape-font-specification:'Ubuntu Mono';text-align:center;text-anchor:middle"
         d="m -110.65379,665.00639 0,3.85 -9.35,0 0,30.195 -4.51,0 0,-30.195 -9.35,0 0,-3.85 23.21,0 z" />
      <path
         id="path4256"
         style="font-style:normal;font-variant:normal;font-weight:normal;font-stretch:normal;font-size:55px;font-family:'Ubuntu Mono';-inkscape-font-specification:'Ubuntu Mono';text-align:center;text-anchor:middle"
         d="m -83.208789,695.20139 0,3.85 -20.295001,0 0,-34.045 4.510001,0 0,30.195 15.785,0 z" />
      <path
         id="path4258"
         style="font-style:normal;font-variant:normal;font-weight:normal;font-stretch:normal;font-size:55px;font-family:'Ubuntu Mono';-inkscape-font-specification:'Ubuntu Mono';text-align:center;text-anchor:middle"
         d="m -76.003789,699.05139 0,-34.045 19.085,0 0,3.85 -14.575,0 0,10.45 12.76,0 0,3.85 -12.76,0 0,12.045 15.785,0 0,3.85 -20.295,0 z" />
      <path
         id="path4260"
         style="font-style:normal;font-variant:normal;font-weight:normal;font-stretch:normal;font-size:55px;font-family:'Ubuntu Mono';-inkscape-font-specification:'Ubuntu Mono';text-align:center;text-anchor:middle"
         d="m -28.153789,665.00639 0,3.85 -9.35,0 0,30.195 -4.51,0 0,-30.195 -9.35,0 0,-3.85 23.21,0 z" />
      <path
         id="path4262"
         style="font-style:normal;font-variant:normal;font-weight:normal;font-stretch:normal;font-size:55px;font-family:'Ubuntu Mono';-inkscape-font-specification:'Ubuntu Mono';text-align:center;text-anchor:middle"
         d="m -0.65378906,665.00639 0,3.85 -9.34999994,0 0,30.195 -4.51,0 0,-30.195 -9.35,0 0,-3.85 23.20999994,0 z" />
    </g>
    <g
       id="text4206"
       style="font-style:normal;font-weight:normal;font-size:43.69346237px;line-height:125%;font-family:sans-serif;letter-spacing:0px;word-spacing:0px;display:inline;fill:#000000;fill-opacity:1;stroke:none;stroke-width:1px;stroke-linecap:butt;stroke-linejoin:miter;stroke-opacity:1"
       transform="matrix(0.70710678,-0.70710678,0.70710678,0.70710678,0,0)">
      <path
         id="path4265"
         style="font-style:normal;font-variant:normal;font-weight:bold;font-stretch:normal;font-size:42.5px;font-family:'Ubuntu Mono';-inkscape-font-specification:'Ubuntu Mono Bold';text-align:center;text-anchor:middle"
         d="m 32.740299,700.36138 -5.44,0 11.9,-36.72 5.355,0 -11.815,36.72 z" />
      <path
         id="path4267"
         style="font-style:normal;font-variant:normal;font-weight:bold;font-stretch:normal;font-size:42.5px;font-family:'Ubuntu Mono';-inkscape-font-specification:'Ubuntu Mono Bold';text-align:center;text-anchor:middle"
         d="m 53.990299,700.36138 -5.44,0 11.9,-36.72 5.355,0 -11.815,36.72 z" />
    </g>
  </g>
  <g
     id="g4639"
     transform="translate(-91.349172,-392.53048)"
     style="display:none">
    <g
       transform="matrix(0.70710678,-0.70710678,0.70710678,0.70710678,-451.90553,495.57555)"
       id="g4643" />
    <g
       transform="matrix(0.70710678,-0.70710678,0.70710678,0.70710678,-318.74135,487.87715)"
       id="g4803">
      <rect
         style="display:inline;opacity:1;fill:#ffffff;fill-opacity:1;stroke:#ffffff;stroke-width:2.99999976;stroke-linecap:butt;stroke-linejoin:miter;stroke-miterlimit:4;stroke-dasharray:none;stroke-opacity:1"
         id="rect4651"
         width="370.91461"
         height="47.477173"
         x="351.52975"
         y="581.21625" />
      <text
         id="text4653"
         y="622.00482"
         x="536.57458"
         style="font-style:normal;font-weight:normal;font-size:55.48899078px;line-height:125%;font-family:sans-serif;letter-spacing:0px;word-spacing:0px;fill:#000000;fill-opacity:1;stroke:none;stroke-width:1px;stroke-linecap:butt;stroke-linejoin:miter;stroke-opacity:1"
         xml:space="preserve"><tspan
           style="font-style:normal;font-variant:normal;font-weight:normal;font-stretch:normal;font-size:55px;font-family:'Ubuntu Mono';-inkscape-font-specification:'Ubuntu Mono';text-align:center;text-anchor:middle"
           y="622.00482"
           x="536.57458"
           id="tspan4655">SOUND-SPACE</tspan></text>
      <rect
         style="display:inline;opacity:1;fill:#ffffff;fill-opacity:1;stroke:#ffffff;stroke-width:3;stroke-linecap:butt;stroke-linejoin:miter;stroke-miterlimit:4;stroke-dasharray:none;stroke-opacity:1"
         id="rect4659"
         width="202.52608"
         height="47.477173"
         x="572.34576"
         y="628.69336" />
      <text
         id="text4661"
         y="669.48193"
         x="674.13129"
         style="font-style:normal;font-weight:normal;font-size:55.48899078px;line-height:125%;font-family:sans-serif;letter-spacing:0px;word-spacing:0px;fill:#000000;fill-opacity:1;stroke:none;stroke-width:1px;stroke-linecap:butt;stroke-linejoin:miter;stroke-opacity:1"
         xml:space="preserve"><tspan
           style="font-style:normal;font-variant:normal;font-weight:normal;font-stretch:normal;font-size:55px;font-family:'Ubuntu Mono';-inkscape-font-specification:'Ubuntu Mono';text-align:center;text-anchor:middle"
           y="669.48193"
           x="674.13129"
           id="tspan4663">AUDIO</tspan></text>
      <rect
         style="display:inline;opacity:1;fill:#ffffff;fill-opacity:1;stroke:#ffffff;stroke-width:3;stroke-linecap:butt;stroke-linejoin:miter;stroke-miterlimit:4;stroke-dasharray:none;stroke-opacity:1"
         id="rect4667"
         width="147.29645"
         height="47.477173"
         x="681.48309"
         y="676.17059" />
      <text
         id="text4669"
         y="716.95923"
         x="753.97632"
         style="font-style:normal;font-weight:normal;font-size:55.48899078px;line-height:125%;font-family:sans-serif;letter-spacing:0px;word-spacing:0px;fill:#000000;fill-opacity:1;stroke:none;stroke-width:1px;stroke-linecap:butt;stroke-linejoin:miter;stroke-opacity:1"
         xml:space="preserve"><tspan
           style="font-style:normal;font-variant:normal;font-weight:normal;font-stretch:normal;font-size:55px;font-family:'Ubuntu Mono';-inkscape-font-specification:'Ubuntu Mono';text-align:center;text-anchor:middle"
           y="716.95923"
           x="753.97632"
           id="tspan4671">LAB</tspan></text>
      <rect
         style="display:inline;opacity:1;fill:#ffffff;fill-opacity:1;stroke:#ffffff;stroke-width:3;stroke-linecap:butt;stroke-linejoin:miter;stroke-miterlimit:4;stroke-dasharray:none;stroke-opacity:1"
         id="rect4675"
         width="641.91864"
         height="47.477173"
         x="30.318731"
         y="533.73907" />
      <g
         transform="translate(-44.981785,-43.604307)"
         id="g4677">
        <text
           id="text4679"
           y="618.13196"
           x="396.64484"
           style="font-style:normal;font-weight:normal;font-size:55.48899078px;line-height:125%;font-family:sans-serif;letter-spacing:0px;word-spacing:0px;display:inline;fill:#000000;fill-opacity:1;stroke:none;stroke-width:1px;stroke-linecap:butt;stroke-linejoin:miter;stroke-opacity:1"
           xml:space="preserve"><tspan
             style="font-style:normal;font-variant:normal;font-weight:normal;font-stretch:normal;font-size:55px;font-family:'Ubuntu Mono';-inkscape-font-specification:'Ubuntu Mono';text-align:center;text-anchor:middle"
             y="618.13196"
             x="396.64484"
             id="tspan4681">NATHANIEL BARTLETT //</tspan></text>
      </g>
    </g>
  </g>
</svg>
